/* XPM */
static char * non_xpm[] = {
"50 50 348 2",
"  	c #EDDAF4",
". 	c #EBD6F3",
"+ 	c #E9D2F2",
"@ 	c #E7CEF1",
"# 	c #E6CAF0",
"$ 	c #E5C8F0",
"% 	c #E4C6EF",
"& 	c #E3C5EF",
"* 	c #EFDEF5",
"= 	c #F1E3F7",
"- 	c #F3E6F8",
"; 	c #F4EAF9",
"> 	c #F6ECFA",
", 	c #F7EFFB",
"' 	c #F8F1FB",
") 	c #F8F2FB",
"! 	c #F7F0FA",
"~ 	c #F6EEFA",
"{ 	c #F5ECF9",
"] 	c #F4E9F8",
"^ 	c #F2E6F7",
"/ 	c #F0E1F6",
"( 	c #EDDBF5",
"_ 	c #EBD7F4",
": 	c #EAD4F3",
"< 	c #E8D0F2",
"[ 	c #E8CFF2",
"} 	c #E9D1F2",
"| 	c #EAD3F3",
"1 	c #ECD9F4",
"2 	c #EEDDF5",
"3 	c #F0E0F6",
"4 	c #F1E4F7",
"5 	c #EAD5F3",
"6 	c #E2C2EE",
"7 	c #E1C0EE",
"8 	c #E0BEED",
"9 	c #E0BCED",
"0 	c #F6ECF9",
"a 	c #F7F0FB",
"b 	c #F7EFFA",
"c 	c #F6EDFA",
"d 	c #F5EBF9",
"e 	c #F4E8F8",
"f 	c #E8D1F2",
"g 	c #E6CCF1",
"h 	c #E5CAF0",
"i 	c #E4C8F0",
"j 	c #E4C7EF",
"k 	c #E5C9F0",
"l 	c #E6CBF1",
"m 	c #E8CFF1",
"n 	c #E9D3F3",
"o 	c #ECD8F4",
"p 	c #EFE0F6",
"q 	c #E3C3EF",
"r 	c #E0BFEE",
"s 	c #DFBAED",
"t 	c #DDB7EC",
"u 	c #DDB5EB",
"v 	c #DCB4EB",
"w 	c #EFDFF6",
"x 	c #F5E9F8",
"y 	c #F7ECFA",
"z 	c #F5EBFA",
"A 	c #F4E7F8",
"B 	c #F2E4F8",
"C 	c #E2C1EE",
"D 	c #E1BFEE",
"E 	c #E0BDED",
"F 	c #E2C3EF",
"G 	c #E4C7F0",
"H 	c #DCB3EB",
"I 	c #DAAFEA",
"J 	c #D9ADEA",
"K 	c #D9ACE9",
"L 	c #EBD5F3",
"M 	c #F2E6F8",
"N 	c #F5EAF8",
"O 	c #F4E9F9",
"P 	c #F3E9F8",
"Q 	c #F2E4F7",
"R 	c #EFE1F7",
"S 	c #EEDCF5",
"T 	c #EBD8F4",
"U 	c #E9D2F3",
"V 	c #DEB9EC",
"W 	c #DDB6EC",
"X 	c #DEB8EC",
"Y 	c #DFBCED",
"Z 	c #DBB1EA",
"` 	c #D7A8E9",
" .	c #D6A5E8",
"..	c #D6A3E8",
"+.	c #EDDCF5",
"@.	c #F0DFF5",
"#.	c #F1E5F7",
"$.	c #F2E7F8",
"%.	c #F2E5F7",
"&.	c #E9D3F2",
"*.	c #E7CDF1",
"=.	c #DBB2EB",
"-.	c #DAAEEA",
";.	c #DBB0EA",
">.	c #D9ABE9",
",.	c #D7A5E8",
"'.	c #D5A1E7",
").	c #D49EE7",
"!.	c #D39CE6",
"~.	c #EFE1F6",
"{.	c #F0E3F7",
"].	c #F1E3F6",
"^.	c #F0E2F6",
"/.	c #D8AAE9",
"(.	c #D7A7E8",
"_.	c #D6A4E8",
":.	c #D7A6E8",
"<.	c #D8A9E9",
"[.	c #D49FE7",
"}.	c #D29AE6",
"|.	c #D197E5",
"1.	c #D195E5",
"2.	c #E7CEF2",
"3.	c #ECD8F3",
"4.	c #EEDEF5",
"5.	c #EAD4F2",
"6.	c #D5A0E7",
"7.	c #D5A2E7",
"8.	c #D194E5",
"9.	c #CF91E4",
"0.	c #CF8FE4",
"a.	c #DAADEA",
"b.	c #E8D0F3",
"c.	c #EBD5F2",
"d.	c #EDDBF4",
"e.	c #ECDAF4",
"f.	c #EBD7F3",
"g.	c #E8D1F1",
"h.	c #E5CAF1",
"i.	c #DCB5EB",
"j.	c #D8A8E9",
"k.	c #D49DE6",
"l.	c #D299E6",
"m.	c #D196E5",
"n.	c #D297E5",
"o.	c #CE8CE4",
"p.	c #CD8AE3",
"q.	c #D39DE6",
"r.	c #D8ABE9",
"s.	c #DEBAEC",
"t.	c #E7CDF2",
"u.	c #E9D4F2",
"v.	c #E6CDF1",
"w.	c #DBB1EB",
"x.	c #D298E6",
"y.	c #D093E5",
"z.	c #CF90E4",
"A.	c #CF8EE4",
"B.	c #D091E4",
"C.	c #CC87E3",
"D.	c #CC86E3",
"E.	c #D094E5",
"F.	c #D39AE6",
"G.	c #E4C5EF",
"H.	c #E8CEF1",
"I.	c #E2C2EF",
"J.	c #DCB5EC",
"K.	c #CD8BE3",
"L.	c #CD89E3",
"M.	c #CE8DE4",
"N.	c #D092E5",
"O.	c #D4A0E7",
"P.	c #DDB6EB",
"Q.	c #E3C3EE",
"R.	c #E7CBF0",
"S.	c #E7CFF1",
"T.	c #E8D1F3",
"U.	c #E8D2F3",
"V.	c #E0C0EE",
"W.	c #CD88E3",
"X.	c #D39BE6",
"Y.	c #E3C5F0",
"Z.	c #E7CCF1",
"`.	c #E6CBF0",
" +	c #E5C9F1",
".+	c #DFBDED",
"++	c #DDB8EC",
"@+	c #DFBBED",
"#+	c #E4C8EF",
"$+	c #DAB0EA",
"%+	c #CE8EE4",
"&+	c #E1BEEE",
"*+	c #E2C4EE",
"=+	c #E2C4EF",
"-+	c #E4C4EF",
";+	c #E3C4EF",
">+	c #DFBEED",
",+	c #DFB9EC",
"'+	c #E1C1EE",
")+	c #E2C0EE",
"!+	c #E1C0ED",
"~+	c #E0BFED",
"{+	c #E1BDED",
"]+	c #DEBAED",
"^+	c #DEB7EC",
"/+	c #D5A2E8",
"(+	c #E0BBED",
"_+	c #DFBCEE",
":+	c #E0BBEC",
"<+	c #DFBBEC",
"[+	c #DEB9ED",
"}+	c #D49DE7",
"|+	c #D9ACEA",
"1+	c #DFBAEC",
"2+	c #DDB7EB",
"3+	c #DCB3EC",
"4+	c #DBB3EB",
"5+	c #DCB2EB",
"6+	c #D7A7E9",
"7+	c #E0BEEE",
"8+	c #DDB4EB",
"9+	c #DAAFE9",
"0+	c #DAAEE9",
"a+	c #DBAFEA",
"b+	c #DBB0EB",
"c+	c #E3C6EF",
"d+	c #D8ACE9",
"e+	c #D8A9EA",
"f+	c #D7A8E8",
"g+	c #D8A7E8",
"h+	c #E1BFED",
"i+	c #D9AAE9",
"j+	c #D8A7E9",
"k+	c #D5A4E8",
"l+	c #DCB1EB",
"m+	c #E6CAF1",
"n+	c #E9D0F2",
"o+	c #EDDAF5",
"p+	c #EFDEF6",
"q+	c #EEDBF5",
"r+	c #E7CFF2",
"s+	c #E3C6F0",
"t+	c #E2C1EF",
"u+	c #E0BDEE",
"v+	c #DDB5EC",
"w+	c #D59FE7",
"x+	c #D39DE7",
"y+	c #D29AE7",
"z+	c #DBAFEB",
"A+	c #E2C3EE",
"B+	c #E4C6F0",
"C+	c #E5CBF1",
"D+	c #EBD5F4",
"E+	c #ECDAF5",
"F+	c #EEDFF6",
"G+	c #E5C8EF",
"H+	c #DEB8ED",
"I+	c #DBB4EC",
"J+	c #D5A3E7",
"K+	c #D49EE6",
"L+	c #D297E6",
"M+	c #D197E6",
"N+	c #D299E5",
"O+	c #D7A4E8",
"P+	c #D9AFEB",
"Q+	c #DBB2EC",
"R+	c #DEB9EB",
"S+	c #E0BCEC",
"T+	c #E2C0ED",
"U+	c #E4C9F0",
"V+	c #EFDDF5",
"W+	c #F3E7F7",
"X+	c #D7A9E9",
"Y+	c #D091E5",
"Z+	c #D5A1E8",
"`+	c #DAAFEB",
" @	c #EEDDF6",
".@	c #F3E5F8",
"+@	c #EFDFF5",
"@@	c #E0BCEE",
"#@	c #DDB8EB",
"$@	c #DBB2EA",
"%@	c #D6A6E9",
"&@	c #D39CE7",
"*@	c #D090E4",
"=@	c #E3C5EE",
"-@	c #EEDCF4",
";@	c #F4EAF8",
">@	c #F1E5F8",
",@	c #EFDDF6",
"'@	c #D193E5",
")@	c #D8A9E8",
"!@	c #DDB9EC",
"~@	c #F0E1F7",
"{@	c #F2E5F8",
"]@	c #F3E8F8",
"^@	c #F1E2F6",
"/@	c #EAD3F2",
"(@	c #D7A5E7",
"_@	c #CF8DE4",
":@	c #D6A4E7",
"<@	c #E8D2F2",
"[@	c #F0E2F7",
"}@	c #F0DFF6",
"|@	c #EAD6F3",
"1@	c #DFBCEC",
"2@	c #D198E6",
"3@	c #F1E2F7",
"4@	c #F6EBF9",
"5@	c #F4E8F9",
"6@	c #ECD7F4",
"7@	c #D7A6E9",
"8@	c #D49CE6",
"9@	c #D196E6",
"0@	c #DCB6EB",
"a@	c #E7D0F2",
"b@	c #ECD9F5",
"c@	c #F3E7F8",
"d@	c #EDDDF5",
"e@	c #DCB2EA",
"f@	c #D5A3E8",
"g@	c #D9ADE9",
"h@	c #E3C2EF",
"i@	c #E6CCF0",
"j@	c #D9ABEA",
"k@	c #D8AAEA",
"l@	c #E6CEF1",
"m@	c #D59EE7",
"n@	c #EDD9F5",
"o@	c #D9A9E9",
"p@	c #D6A5E9",
"q@	c #D6A2E7",
"r@	c #D6A3E7",
"s@	c #DEBBED",
"t@	c #E3C4EE",
"u@	c #DAB0EB",
"v@	c #D9AEEA",
"w@	c #DDB4EC",
"x@	c #E1C2EE",
"y@	c #E5C7F0",
"z@	c #E8D0F1",
"A@	c #DFBEEE",
"B@	c #E5CBF0",
"C@	c #EDD9F4",
"D@	c #EAD5F2",
"E@	c #F0E0F7",
"F@	c #EBD4F3",
"G@	c #F3E6F7",
"  . + @ # $ % & & % $ # @ + .   * = - ; > , ' ) ) ) ) ! ~ { ] ^ / * ( _ : + < @ @ @ [ } | . 1 2 3 4 ",
"5 < # % 6 7 8 9 9 8 7 6 % # < 5 1 * = - ; 0 ~ a a ! b c d e ^ / 2 1 5 f g h i & & & j k l m n o ( p ",
"[ k q r s t u v v u t s r q k [ 5   w = - x d 0 c y z ; A B / 2 o : @ k & C D E 9 9 8 7 F G g + . ( ",
"k F 9 t H I J K K J I H t 9 F k < L ( w = M e ] N O P M Q R S T U @ G 6 E V W v v v W X Y 7 & l f . ",
"q 9 W Z K `  ..... .` K Z W 9 q h f . +.@.= #.$.$.$.%.= 3 S o &.*.G 7 s W =.-.K K K J ;.v X 8 & l + ",
"r t Z >.,.'.).!.!.).'.,.>.;.t E & g + T S w ~.{.= ].^.w 2 o | *.j 7 V v I /.(._.....:.<.-.=.X 8 % g ",
"s H K ,.[.}.|.1.1.|.}.[. .>.=.V 7 $ 2.5 3.S 4.p p p * ( 1 5.m i 6 s v -.<...6.!.!.!.[.7.(.J H V C $ ",
"t I ` '.}.8.9.0.0.9.8.}.6.(.a.u E & l b.c.1 d.S +.( e.f.: g.h.F E i.I j...k.l.m.1.1.n.!.'.(.-.i.E & ",
"u J  .).|.9.o.p.p.o.9.m.q._.r.=.s.C $ t.+ L f.o 1 o _ u.< v.G 7 V w.r._.).x.y.z.A.0.B.m.!.../.w.s.6 ",
"v K ..!.1.0.p.C.D.p.0.E.F.'.<.;.t r G.h.H.} 5.5 5 : n f *.$ I.E J.-.(.'.}.E.0.K.L.p.M.N.l.O.(.I X 7 ",
"v K ..!.1.0.p.D.D.p.A.E.}.'.` I P.E Q.G R.S.< T.U.f [ *.k & V.s.H K ,.).x.N.o.W.D.C.K.9.|.).:.-.W D ",
"u J  .).|.9.o.p.p.o.z.1.X.7.` I u Y C Y.k l v.*.*.Z.`. +% 6 .+++w./._.).|.N.o.W.D.C.K.9.|.).:.-.W D ",
"t I ` '.}.8.9.0.A.z.y.x.)._.<.I i.@+D F % #+k k k k G % Q.D @+W $+/._.).x.y.%+K.L.p.M.N.x.O.(.I X 7 ",
"s H K ,.[.}.m.8.E.1.x.q.'.(.>.;.u @+&+I.*+=+G.& -+;+;+6 7 >+,+u $+/. .O.X.m.9.0.%+0.9.m.!.../.w.s.6 ",
"r t Z >.,.'.q.X.}.!.).'.:.<.a.=.W ,+9 r 7 '+)+!+r ~+{+{+Y ]+^+H I r.(./+).}.m.E.y.E.|.X.'.(.-.i.E & ",
"q 9 W Z K (._./+'.7._.(.<.J ;.v t ]+(+9 _+:+<+s s.[+X X X W W H $+K <. .7.).!.}.l.}.}+'.(.|+H V C $ ",
"k F 9 t =.-.>.<.j.<./.K -.;.H W X V 1+X t 2+P.v 3+H H H 4+5+=.=.$+J r.` :...'.6.6.'._.6+J =.^+8 % g ",
"[ k q 7+V P.H Z ;.$+$+w.H v W t X ++t u 8+w.9+-.J J 0+J I a+;.b+$+I J >./.j.6+:.6+j.>.-.4+^+8 & l + ",
"5 < # c+C 8 <+V t t t t X X V V X W v Z -.d+e+f+g+(.6+j.<.r.K I I Z ;.I -.J J J -.-.w.v s.h+;+l f . ",
"  . } g $ G.6 D 7+E 9 9 (+@+s [+t v Z -.i+j+k+7.'.6.'...:.j./.K -.b+b+w.w.l+5+5+8+W ,+9 )+G.m+n+L o+",
"p+q+_ &.r+l k s+;+I.t+7 D u+Y V v+=.a./.6+7.w+x+y+F.!.).'._.6+/.|+z+5+v J.W t ++]+Y r A+B+C+< D+E+F+",
"{.w d.3.: } H.`.k G+% Q.C h+9 H+I+b+>.j+J+K+l.L+1.E.M+N+!.6.O+j+|+P+Q+W R+1+S+E T+6 & U+v.} L 1 V+^.",
"W+= w S 1 . U < *.l $ G.q 7 E X 4+a.X+..K+}.1.Y+z.z.Y+E.N+q.Z+:./.`+H ^+s E D t+;+G m+t.+ 5 1  @/ 4 ",
"e .@= +@+.o . n n+@ `.#+& I.@@#@$@K %@7.&@1.*@M.K.K.o.*@1.F.6.k+/.9+v X Y D 6 =@$ # v.< : o -@p = $.",
";@e >@/ ,@q+T 5 + m g k c+6 .+t Z K ,.).l.'@0.p.C.C.p.A.N.x.}+_.)@-.H !@E '+;+B+h *.< n . e.2 ~@{@]@",
"d ] {@^@w S 1 . /@< g k c+C Y 2+l+r.(@[.l.'@A.L.D.D.L._@'@l.).:@/.a+v ,+E '+G.i l H.<@: f.d.+@[@{@e ",
"{ O M ].}@+.o |@/@[ g k % '+1@t Z >. .O.l.1.0.K.W.W.K.A.8.2@K+:@<.I v V E 6 c+k `.H.} 5 f.d.+@3@M ] ",
"4@5@^ ^.p+  6@: } @ l $ G.C 9 ++5+K 7@7.8@M+N.A.M.M.A.N.9@!.'.:.r.w.0@s D 6 ;+i # *.a@n . b@2 / Q c@",
"; ]@4 3 d@1 5 U a@g $ % q 7 Y t e@J <...O.X.9@8.Y+Y+'@9@F.w+f@X+g@Z W @+8 7 h@c+i `.@ f u.o S w 4 ^ ",
"]@{@3@V+o+. + S.i@k % F '+&+@+t H a+j@(...[.X.x.9@L+x.X.6...(.k@I H W s u+h+'+q & G h l@} 5 3.S 3 4 ",
"^ ^@V+1 |@} @ # % *+'+7 8 Y [+t v ;.a.<.(...6.m@&@x+[.'...(.<.a.w.v t V s E 8 D '+6 & k Z.< : 1 2 / ",
"= w n@|@} g G+& '+8 Y @+s.X ^+W i.=.$+a.o@g+p@f@q@r@k+p@j.i+-.w.H i.t X X X s.]+@+Y D A+c+h [ : 1 2 ",
"p o+. < # c+'+7+s@X W u i.v v v i.v w.;.a.|+/.j.<.` <./.|+I b+H u W W u J.v v v u 2+V Y D t@k r+: 1 ",
"( . f l & D @+t v w.;.I I $+Z =.H H H 5+l+u@a+I v@I I ;.=.4+8+P.W v+v =.w.a+-.-.-.$+=.i.X u+h@k [ 5 ",
"o + l ;+8 X H I |+/.<.<./.>.g@-.Z H i.w@J.i.i.v v H w@P.P.W ^+^+W v =.I J >.<.` ` <.r.a.=.t 9 F k < ",
"n g & 8 ^+=.a.<. .../+f@_.(.<.K -.$@v t ++X V ]+s s ]+1+@+]+]+X P.=.I K <.:...7.'.'._.(.>.;.W 9 q # ",
"m G 7 X =.|+(.7.).!.!.x+[.7. .j.|+b+v t 1+.+8 8 &+&+h+D r E s X v+w.g@<. .'.).X.}.F.q.6. .>.Z t r % ",
"l F Y v -.(.'.!.x.m.1.|.l.}+7.:.r.$+v X 9 ~+'+6 F F =+I.x@)+u+,+i.$+/.:.'.!.x.1.E.E.m.}.[.,.K H s 6 ",
"k 7 X ;.<.7.X.m.N.z.z.9.E.l.)...j.-.v V 8 '+q & % j #+G.;+6 7+1+i.-.<...).x.y.z.A.A.z.E.}.'.` I t 7 ",
"j 8 W J :.[.n.9.M.K.K.M.z.m.!.7.` -.v s.r q j k h.l h k y@F D s 8+-.` '.X.1.z.o.L.p.o.9.|.). .J u 8 ",
"& 9 v K ..!.1.0.p.C.C.p.0.E.}.6.6+-.i.1+'+Y.k `.*.*.v.`.m+& C Y u I ` '.}.E.A.L.D.D.p.0.1.!...K v 9 ",
"& 9 v K ..!.1.A.L.D.D.L.%+E.}.'.j.I W E A+i i@@ z@g.z@S.g i t@A@W ;.j.'.}.E.A.p.D.D.p.0.1.!...K v 9 ",
"& E v K _.!.m.z.K.W.W.K.z.1.X.7./.w.X ~+& B@2.} &./@/@U r+l j 7 V =.r._.q.m.z.o.p.p.o.9.|.). .J u 8 ",
"i D W -.(.6.l.y.0.M.M.0.y.x.[.:.|+v @+6 k @ + 5 |@. f.5 + r+# =+9 u a.(.6.}.E.9.0.0.9.8.}.'.` I t 7 ",
"h C V =./._.).x.1.y.y.1.x.}+../.$+t D G.v.} 5 3.C@    o 5 + *.G D V =.>. .[.}.|.1.1.|.}.[.,.K H s 6 ",
"g & E W I <._.[.X.l.l.X.[...<.I i.9 h@k < L 1 ( 2 4.2 ( b@|@g.C+;+E t ;.>.,.'.).!.!.).'.,.>.Z t r % ",
"f k 6 s v I /.:...'.'...:./.I v s '+i @ 5.1 S w 3 / 3 w V+e.D@a@h q 9 W Z K `  ..... .` K Z W 9 q # ",
"5 @ G '+s u Z J /.<.<./.J Z u s '+G Z.| 1 S p [@4 #.4 = E@2 n@F@< k F 9 t H I J K K J I H t 9 F k < ",
"1 : @ G C Y X v =.w.w.=.v X Y C G @ : o 2 / = .@c@c@c@G@%./  @C@5 [ k q r s t u v v u t s r q k [ 5 ",
"2 o n @ $ ;+7 E @+s.s.@+E 7 ;+$ @ n o S ~.Q c@e ; d ; ] c@%.[@V+1 5 < # % 6 7 8 9 9 8 7 6 % # < 5 1 "};
