/* XPM */
static char * player_dot_xpm[] = {
"8 8 3 1",
" 	c None",
".	c #AB00AD",
"+	c #FF00FF",
"  ....  ",
" .++++. ",
".++++++.",
".++++++.",
".++++++.",
".++++++.",
" .++++. ",
"  ....  "};
